<svg width="24" height="24" viewBox="0 0 24 24" fill="none" xmlns="http://www.w3.org/2000/svg">
<path d="M21.2021 7.71837C21.0942 7.29597 20.9276 6.89078 20.7072 6.51461C20.4955 6.12329 20.2249 5.7669 19.9047 5.45797C19.4405 4.99537 18.8909 4.62741 18.2863 4.37458C17.0694 3.87514 15.7047 3.87514 14.4878 4.37458C13.9163 4.61646 13.3913 4.9559 12.9362 5.37772L12.8694 5.45797L12 6.32736L11.1306 5.45797L11.0637 5.37772C10.6086 4.9559 10.0836 4.61646 9.5122 4.37458C8.29527 3.87514 6.93058 3.87514 5.71365 4.37458C5.10907 4.62741 4.55941 4.99537 4.09526 5.45797C3.46042 6.07568 3.01103 6.85864 2.79787 7.71837C2.68447 8.15497 2.63048 8.60486 2.63736 9.05589C2.63736 9.47988 2.69087 9.90254 2.79787 10.3132C2.91 10.7278 3.07166 11.1275 3.27937 11.5035C3.50369 11.8901 3.77802 12.2454 4.09526 12.5602L12 20.4649L19.9047 12.5602C20.2217 12.2485 20.4932 11.8914 20.7072 11.5035C21.1416 10.7614 21.368 9.91584 21.3626 9.05589C21.3695 8.60486 21.3155 8.15496 21.2021 7.71837ZM19.8646 9.89852C19.7044 10.5097 19.3861 11.0678 18.9417 11.5169L11.9732 18.472L5.00477 11.5169C4.77769 11.2882 4.58 11.0321 4.41626 10.7545C4.26219 10.4799 4.14098 10.1881 4.05513 9.88515C3.9866 9.58223 3.95073 9.27283 3.94813 8.96226C3.94994 8.64281 3.98581 8.32447 4.05513 8.01263C4.13846 7.70879 4.2598 7.41669 4.41626 7.14324C4.57676 6.86236 4.77472 6.60823 5.00477 6.38086C5.34837 6.04185 5.75203 5.76972 6.19516 5.57835C7.0881 5.22113 8.08425 5.22113 8.97719 5.57835C9.41857 5.76159 9.81715 6.03043 10.1542 6.36748L11.9732 8.19988L13.7923 6.36748C14.1291 6.02983 14.529 5.7617 14.9693 5.57835C15.8622 5.22113 16.8584 5.22113 17.7513 5.57835C18.194 5.76961 18.5979 6.04246 18.9417 6.38086C19.1744 6.60155 19.3697 6.85835 19.5168 7.14324C19.8266 7.68957 19.988 8.30747 19.985 8.93551C20.0031 9.25869 19.9761 9.58282 19.9047 9.89852H19.8646Z" fill="#92929D"/>
</svg>
